<svg xmlns="http://www.w3.org/2000/svg" xmlns:xlink="http://www.w3.org/1999/xlink" width="150" zoomAndPan="magnify" viewBox="0 0 1440 809.999993" height="150" preserveAspectRatio="xMidYMid meet" version="1.0"><path fill="#ffffff" d="M 776.851562 460.078125 L 663.148438 460.078125 C 662.796875 460.078125 662.449219 460.046875 662.105469 459.976562 C 661.761719 459.910156 661.429688 459.808594 661.105469 459.671875 C 660.78125 459.539062 660.472656 459.375 660.179688 459.179688 C 659.890625 458.984375 659.621094 458.761719 659.371094 458.515625 C 659.125 458.269531 658.902344 457.996094 658.707031 457.707031 C 658.511719 457.414062 658.347656 457.105469 658.214844 456.78125 C 658.078125 456.457031 657.976562 456.125 657.910156 455.78125 C 657.839844 455.4375 657.808594 455.089844 657.808594 454.738281 C 657.808594 454.386719 657.839844 454.042969 657.910156 453.695312 C 657.976562 453.351562 658.078125 453.019531 658.214844 452.695312 C 658.347656 452.371094 658.511719 452.0625 658.707031 451.773438 C 658.902344 451.480469 659.125 451.210938 659.371094 450.960938 C 659.621094 450.714844 659.890625 450.492188 660.179688 450.296875 C 660.472656 450.101562 660.78125 449.9375 661.105469 449.804688 C 661.429688 449.671875 661.761719 449.570312 662.105469 449.5 C 662.449219 449.433594 662.796875 449.398438 663.148438 449.398438 L 776.851562 449.398438 C 777.199219 449.40625 777.539062 449.445312 777.878906 449.519531 C 778.21875 449.59375 778.546875 449.699219 778.863281 449.835938 C 779.179688 449.972656 779.484375 450.140625 779.769531 450.335938 C 780.054688 450.53125 780.316406 450.753906 780.558594 451 C 780.800781 451.246094 781.019531 451.515625 781.210938 451.804688 C 781.398438 452.09375 781.558594 452.398438 781.691406 452.71875 C 781.820312 453.039062 781.921875 453.371094 781.988281 453.710938 C 782.054688 454.050781 782.085938 454.394531 782.085938 454.738281 C 782.085938 455.085938 782.054688 455.429688 781.988281 455.769531 C 781.921875 456.109375 781.820312 456.4375 781.691406 456.757812 C 781.558594 457.078125 781.398438 457.382812 781.210938 457.671875 C 781.019531 457.964844 780.800781 458.230469 780.558594 458.480469 C 780.316406 458.726562 780.054688 458.949219 779.769531 459.144531 C 779.484375 459.339844 779.179688 459.507812 778.863281 459.644531 C 778.546875 459.78125 778.21875 459.886719 777.878906 459.960938 C 777.539062 460.03125 777.199219 460.074219 776.851562 460.078125 Z M 776.851562 460.078125 " fill-opacity="1" fill-rule="nonzero"/><path fill="#ffffff" d="M 776.851562 410.316406 L 663.148438 410.316406 C 662.800781 410.316406 662.453125 410.28125 662.109375 410.214844 C 661.769531 410.144531 661.4375 410.042969 661.113281 409.910156 C 660.792969 409.777344 660.484375 409.613281 660.195312 409.417969 C 659.90625 409.226562 659.636719 409.003906 659.390625 408.757812 C 659.140625 408.511719 658.921875 408.242188 658.726562 407.953125 C 658.535156 407.664062 658.371094 407.355469 658.238281 407.035156 C 658.105469 406.710938 658.003906 406.378906 657.933594 406.035156 C 657.867188 405.695312 657.832031 405.347656 657.832031 405 C 657.832031 404.652344 657.867188 404.304688 657.933594 403.964844 C 658.003906 403.621094 658.105469 403.289062 658.238281 402.964844 C 658.371094 402.644531 658.535156 402.335938 658.726562 402.046875 C 658.921875 401.757812 659.144531 401.488281 659.390625 401.242188 C 659.636719 400.996094 659.90625 400.773438 660.195312 400.582031 C 660.484375 400.386719 660.792969 400.222656 661.113281 400.089844 C 661.4375 399.957031 661.769531 399.855469 662.109375 399.785156 C 662.453125 399.71875 662.800781 399.683594 663.148438 399.683594 L 776.851562 399.683594 C 777.199219 399.6875 777.539062 399.726562 777.878906 399.800781 C 778.21875 399.871094 778.546875 399.972656 778.863281 400.109375 C 779.183594 400.246094 779.484375 400.410156 779.769531 400.605469 C 780.054688 400.800781 780.320312 401.019531 780.5625 401.265625 C 780.804688 401.511719 781.023438 401.78125 781.214844 402.070312 C 781.40625 402.359375 781.566406 402.664062 781.695312 402.984375 C 781.828125 403.300781 781.925781 403.632812 781.996094 403.972656 C 782.0625 404.3125 782.09375 404.652344 782.09375 405 C 782.09375 405.347656 782.0625 405.6875 781.996094 406.027344 C 781.925781 406.367188 781.828125 406.699219 781.695312 407.015625 C 781.566406 407.335938 781.40625 407.640625 781.214844 407.929688 C 781.023438 408.21875 780.804688 408.488281 780.5625 408.734375 C 780.320312 408.980469 780.054688 409.199219 779.769531 409.394531 C 779.484375 409.589844 779.183594 409.753906 778.863281 409.890625 C 778.546875 410.027344 778.21875 410.128906 777.878906 410.199219 C 777.539062 410.273438 777.199219 410.3125 776.851562 410.316406 Z M 776.851562 410.316406 " fill-opacity="1" fill-rule="nonzero"/><path fill="#ffffff" d="M 776.851562 360.601562 L 663.148438 360.601562 C 662.796875 360.601562 662.449219 360.566406 662.105469 360.5 C 661.761719 360.429688 661.429688 360.328125 661.105469 360.195312 C 660.78125 360.0625 660.472656 359.898438 660.179688 359.703125 C 659.890625 359.507812 659.621094 359.285156 659.371094 359.039062 C 659.125 358.789062 658.902344 358.519531 658.707031 358.226562 C 658.511719 357.9375 658.347656 357.628906 658.214844 357.304688 C 658.078125 356.980469 657.976562 356.648438 657.910156 356.304688 C 657.839844 355.957031 657.808594 355.613281 657.808594 355.261719 C 657.808594 354.910156 657.839844 354.5625 657.910156 354.21875 C 657.976562 353.875 658.078125 353.542969 658.214844 353.21875 C 658.347656 352.894531 658.511719 352.585938 658.707031 352.292969 C 658.902344 352.003906 659.125 351.730469 659.371094 351.484375 C 659.621094 351.238281 659.890625 351.015625 660.179688 350.820312 C 660.472656 350.625 660.78125 350.460938 661.105469 350.328125 C 661.429688 350.191406 661.761719 350.089844 662.105469 350.023438 C 662.449219 349.953125 662.796875 349.921875 663.148438 349.921875 L 776.851562 349.921875 C 777.199219 349.925781 777.542969 349.964844 777.878906 350.039062 C 778.21875 350.113281 778.546875 350.21875 778.867188 350.355469 C 779.183594 350.492188 779.484375 350.65625 779.773438 350.855469 C 780.058594 351.050781 780.324219 351.269531 780.566406 351.519531 C 780.808594 351.765625 781.023438 352.035156 781.214844 352.324219 C 781.40625 352.613281 781.566406 352.917969 781.699219 353.238281 C 781.828125 353.558594 781.929688 353.890625 781.996094 354.230469 C 782.0625 354.570312 782.09375 354.914062 782.09375 355.261719 C 782.09375 355.609375 782.0625 355.949219 781.996094 356.289062 C 781.929688 356.632812 781.828125 356.960938 781.699219 357.28125 C 781.566406 357.601562 781.40625 357.910156 781.214844 358.199219 C 781.023438 358.488281 780.808594 358.757812 780.566406 359.003906 C 780.324219 359.25 780.058594 359.472656 779.773438 359.667969 C 779.484375 359.863281 779.183594 360.03125 778.867188 360.167969 C 778.546875 360.304688 778.21875 360.410156 777.878906 360.484375 C 777.542969 360.554688 777.199219 360.59375 776.851562 360.601562 Z M 776.851562 360.601562 " fill-opacity="1" fill-rule="nonzero"/><path fill="#ffffff" d="M 720 243 C 717.347656 243 714.699219 243.066406 712.050781 243.195312 C 709.402344 243.324219 706.757812 243.519531 704.121094 243.78125 C 701.484375 244.039062 698.851562 244.363281 696.230469 244.753906 C 693.605469 245.140625 690.996094 245.59375 688.394531 246.113281 C 685.796875 246.628906 683.207031 247.210938 680.636719 247.855469 C 678.066406 248.5 675.511719 249.207031 672.972656 249.976562 C 670.4375 250.746094 667.921875 251.578125 665.421875 252.46875 C 662.925781 253.363281 660.453125 254.316406 658.003906 255.332031 C 655.554688 256.347656 653.132812 257.421875 650.734375 258.554688 C 648.339844 259.6875 645.972656 260.878906 643.632812 262.128906 C 641.296875 263.378906 638.988281 264.683594 636.714844 266.046875 C 634.441406 267.410156 632.203125 268.828125 629.996094 270.300781 C 627.792969 271.773438 625.625 273.300781 623.496094 274.878906 C 621.367188 276.460938 619.277344 278.089844 617.226562 279.773438 C 615.179688 281.453125 613.171875 283.183594 611.207031 284.964844 C 609.242188 286.746094 607.324219 288.574219 605.449219 290.449219 C 603.574219 292.324219 601.746094 294.242188 599.964844 296.207031 C 598.183594 298.171875 596.453125 300.179688 594.773438 302.226562 C 593.089844 304.277344 591.460938 306.367188 589.878906 308.496094 C 588.300781 310.625 586.773438 312.792969 585.300781 314.996094 C 583.828125 317.203125 582.410156 319.441406 581.046875 321.714844 C 579.683594 323.988281 578.378906 326.296875 577.128906 328.632812 C 575.878906 330.972656 574.6875 333.339844 573.554688 335.734375 C 572.421875 338.132812 571.347656 340.554688 570.332031 343.003906 C 569.316406 345.453125 568.363281 347.925781 567.46875 350.425781 C 566.578125 352.921875 565.746094 355.4375 564.976562 357.972656 C 564.207031 360.511719 563.5 363.066406 562.855469 365.636719 C 562.210938 368.210938 561.628906 370.796875 561.113281 373.394531 C 560.59375 375.996094 560.140625 378.605469 559.753906 381.230469 C 559.363281 383.851562 559.039062 386.484375 558.78125 389.121094 C 558.519531 391.757812 558.324219 394.402344 558.195312 397.050781 C 558.066406 399.699219 558 402.347656 558 405 C 558 407.652344 558.066406 410.300781 558.195312 412.949219 C 558.324219 415.597656 558.519531 418.242188 558.78125 420.878906 C 559.039062 423.515625 559.363281 426.148438 559.753906 428.769531 C 560.140625 431.394531 560.59375 434.003906 561.113281 436.605469 C 561.628906 439.203125 562.210938 441.789062 562.855469 444.363281 C 563.5 446.933594 564.207031 449.488281 564.976562 452.027344 C 565.746094 454.5625 566.578125 457.078125 567.46875 459.574219 C 568.363281 462.074219 569.316406 464.546875 570.332031 466.996094 C 571.347656 469.445312 572.421875 471.867188 573.554688 474.265625 C 574.6875 476.660156 575.878906 479.027344 577.128906 481.367188 C 578.378906 483.703125 579.683594 486.011719 581.046875 488.285156 C 582.410156 490.558594 583.828125 492.796875 585.300781 495.003906 C 586.773438 497.207031 588.300781 499.375 589.878906 501.503906 C 591.460938 503.632812 593.089844 505.722656 594.773438 507.773438 C 596.453125 509.820312 598.183594 511.828125 599.964844 513.792969 C 601.746094 515.757812 603.574219 517.675781 605.449219 519.550781 C 607.324219 521.425781 609.242188 523.253906 611.207031 525.035156 C 613.171875 526.816406 615.179688 528.546875 617.226562 530.226562 C 619.277344 531.910156 621.367188 533.539062 623.496094 535.121094 C 625.625 536.699219 627.792969 538.226562 629.996094 539.699219 C 632.203125 541.171875 634.441406 542.589844 636.714844 543.953125 C 638.988281 545.316406 641.296875 546.621094 643.632812 547.871094 C 645.972656 549.121094 648.339844 550.3125 650.734375 551.445312 C 653.132812 552.578125 655.554688 553.652344 658.003906 554.667969 C 660.453125 555.683594 662.925781 556.636719 665.421875 557.53125 C 667.921875 558.421875 670.4375 559.253906 672.972656 560.023438 C 675.511719 560.792969 678.066406 561.5 680.636719 562.144531 C 683.207031 562.789062 685.796875 563.371094 688.394531 563.886719 C 690.996094 564.40625 693.605469 564.859375 696.230469 565.246094 C 698.851562 565.636719 701.484375 565.960938 704.121094 566.21875 C 706.757812 566.480469 709.402344 566.675781 712.050781 566.804688 C 714.699219 566.933594 717.347656 567 720 567 C 722.652344 567 725.300781 566.933594 727.949219 566.804688 C 730.597656 566.675781 733.242188 566.480469 735.878906 566.21875 C 738.515625 565.960938 741.148438 565.636719 743.769531 565.246094 C 746.394531 564.859375 749.003906 564.40625 751.605469 563.886719 C 754.203125 563.371094 756.789062 562.789062 759.363281 562.144531 C 761.933594 561.5 764.488281 560.792969 767.027344 560.023438 C 769.5625 559.253906 772.078125 558.421875 774.574219 557.53125 C 777.074219 556.636719 779.546875 555.683594 781.996094 554.667969 C 784.445312 553.652344 786.867188 552.578125 789.265625 551.445312 C 791.660156 550.3125 794.027344 549.121094 796.367188 547.871094 C 798.703125 546.621094 801.011719 545.316406 803.285156 543.953125 C 805.558594 542.589844 807.796875 541.171875 810.003906 539.699219 C 812.207031 538.226562 814.375 536.699219 816.503906 535.121094 C 818.632812 533.539062 820.722656 531.910156 822.773438 530.226562 C 824.820312 528.546875 826.828125 526.816406 828.792969 525.035156 C 830.757812 523.253906 832.675781 521.425781 834.550781 519.550781 C 836.425781 517.675781 838.253906 515.757812 840.035156 513.792969 C 841.816406 511.828125 843.546875 509.820312 845.226562 507.773438 C 846.910156 505.722656 848.539062 503.632812 850.121094 501.503906 C 851.699219 499.375 853.226562 497.207031 854.699219 495.003906 C 856.171875 492.796875 857.589844 490.558594 858.953125 488.285156 C 860.316406 486.011719 861.621094 483.703125 862.871094 481.367188 C 864.121094 479.027344 865.3125 476.660156 866.445312 474.265625 C 867.578125 471.867188 868.652344 469.445312 869.667969 466.996094 C 870.683594 464.546875 871.636719 462.074219 872.53125 459.574219 C 873.421875 457.078125 874.253906 454.5625 875.023438 452.027344 C 875.792969 449.488281 876.5 446.933594 877.144531 444.363281 C 877.789062 441.789062 878.371094 439.203125 878.886719 436.605469 C 879.40625 434.003906 879.859375 431.394531 880.246094 428.769531 C 880.636719 426.148438 880.960938 423.515625 881.21875 420.878906 C 881.480469 418.242188 881.675781 415.597656 881.804688 412.949219 C 881.933594 410.300781 882 407.652344 882 405 C 882 402.347656 881.933594 399.699219 881.804688 397.050781 C 881.671875 394.402344 881.476562 391.761719 881.21875 389.121094 C 880.957031 386.484375 880.632812 383.851562 880.242188 381.230469 C 879.855469 378.609375 879.402344 375.996094 878.882812 373.398438 C 878.367188 370.796875 877.785156 368.210938 877.140625 365.640625 C 876.496094 363.066406 875.789062 360.511719 875.019531 357.976562 C 874.25 355.4375 873.417969 352.921875 872.523438 350.425781 C 871.632812 347.929688 870.675781 345.457031 869.664062 343.007812 C 868.648438 340.558594 867.574219 338.136719 866.441406 335.738281 C 865.308594 333.34375 864.113281 330.976562 862.863281 328.636719 C 861.617188 326.300781 860.308594 323.992188 858.945312 321.71875 C 857.582031 319.445312 856.164062 317.207031 854.691406 315.003906 C 853.21875 312.796875 851.691406 310.632812 850.113281 308.5 C 848.535156 306.371094 846.902344 304.28125 845.222656 302.234375 C 843.539062 300.183594 841.808594 298.175781 840.027344 296.214844 C 838.246094 294.25 836.421875 292.328125 834.546875 290.453125 C 832.671875 288.578125 830.75 286.753906 828.785156 284.972656 C 826.824219 283.191406 824.816406 281.460938 822.765625 279.777344 C 820.71875 278.097656 818.628906 276.464844 816.5 274.886719 C 814.367188 273.308594 812.203125 271.78125 809.996094 270.308594 C 807.792969 268.835938 805.554688 267.417969 803.28125 266.054688 C 801.007812 264.691406 798.699219 263.382812 796.363281 262.132812 C 794.023438 260.886719 791.65625 259.691406 789.261719 258.558594 C 786.863281 257.425781 784.441406 256.351562 781.992188 255.335938 C 779.542969 254.320312 777.070312 253.367188 774.574219 252.476562 C 772.078125 251.582031 769.5625 250.75 767.023438 249.980469 C 764.488281 249.210938 761.933594 248.503906 759.359375 247.859375 C 756.789062 247.214844 754.203125 246.632812 751.601562 246.117188 C 749.003906 245.597656 746.390625 245.144531 743.769531 244.757812 C 741.148438 244.367188 738.515625 244.042969 735.878906 243.78125 C 733.238281 243.523438 730.597656 243.328125 727.949219 243.195312 C 725.300781 243.066406 722.652344 243 720 243 Z M 821.25 479.621094 C 821.25 480.492188 821.207031 481.363281 821.117188 482.230469 C 821.03125 483.097656 820.902344 483.960938 820.734375 484.8125 C 820.5625 485.667969 820.351562 486.511719 820.097656 487.347656 C 819.84375 488.179688 819.546875 489 819.214844 489.804688 C 818.878906 490.613281 818.507812 491.398438 818.097656 492.167969 C 817.683594 492.9375 817.238281 493.683594 816.753906 494.40625 C 816.265625 495.132812 815.75 495.832031 815.195312 496.503906 C 814.640625 497.179688 814.058594 497.824219 813.441406 498.441406 C 812.824219 499.058594 812.179688 499.640625 811.503906 500.195312 C 810.832031 500.75 810.132812 501.269531 809.40625 501.753906 C 808.683594 502.238281 807.9375 502.683594 807.167969 503.097656 C 806.398438 503.507812 805.613281 503.878906 804.804688 504.214844 C 804 504.546875 803.179688 504.84375 802.347656 505.097656 C 801.511719 505.351562 800.667969 505.5625 799.8125 505.734375 C 798.960938 505.902344 798.097656 506.03125 797.230469 506.117188 C 796.363281 506.207031 795.492188 506.25 794.621094 506.25 L 645.378906 506.25 C 644.507812 506.25 643.636719 506.207031 642.769531 506.117188 C 641.902344 506.03125 641.039062 505.902344 640.1875 505.734375 C 639.332031 505.5625 638.488281 505.351562 637.652344 505.097656 C 636.816406 504.84375 636 504.546875 635.195312 504.214844 C 634.386719 503.878906 633.601562 503.507812 632.832031 503.097656 C 632.0625 502.683594 631.316406 502.238281 630.59375 501.753906 C 629.867188 501.269531 629.167969 500.75 628.496094 500.195312 C 627.820312 499.640625 627.175781 499.058594 626.558594 498.441406 C 625.941406 497.824219 625.359375 497.179688 624.804688 496.503906 C 624.25 495.832031 623.730469 495.132812 623.246094 494.40625 C 622.761719 493.683594 622.316406 492.9375 621.902344 492.167969 C 621.492188 491.398438 621.121094 490.613281 620.785156 489.804688 C 620.453125 489 620.15625 488.179688 619.902344 487.347656 C 619.648438 486.511719 619.4375 485.667969 619.265625 484.8125 C 619.097656 483.960938 618.96875 483.097656 618.882812 482.230469 C 618.792969 481.363281 618.75 480.492188 618.75 479.621094 L 618.75 330.378906 C 618.75 329.507812 618.792969 328.636719 618.882812 327.769531 C 618.96875 326.902344 619.097656 326.039062 619.265625 325.1875 C 619.4375 324.332031 619.648438 323.488281 619.902344 322.652344 C 620.15625 321.820312 620.453125 321 620.785156 320.195312 C 621.121094 319.386719 621.492188 318.601562 621.902344 317.832031 C 622.316406 317.0625 622.761719 316.316406 623.246094 315.59375 C 623.730469 314.867188 624.25 314.167969 624.804688 313.496094 C 625.359375 312.820312 625.941406 312.175781 626.558594 311.558594 C 627.175781 310.941406 627.820312 310.359375 628.496094 309.804688 C 629.167969 309.25 629.867188 308.730469 630.59375 308.246094 C 631.316406 307.761719 632.0625 307.316406 632.832031 306.902344 C 633.601562 306.492188 634.386719 306.121094 635.195312 305.785156 C 636 305.453125 636.816406 305.15625 637.652344 304.902344 C 638.488281 304.648438 639.332031 304.4375 640.1875 304.265625 C 641.039062 304.097656 641.902344 303.96875 642.769531 303.882812 C 643.636719 303.792969 644.507812 303.75 645.378906 303.75 L 794.621094 303.75 C 795.492188 303.75 796.363281 303.792969 797.230469 303.882812 C 798.097656 303.96875 798.960938 304.097656 799.8125 304.265625 C 800.667969 304.4375 801.511719 304.648438 802.347656 304.902344 C 803.179688 305.15625 804 305.453125 804.804688 305.785156 C 805.613281 306.121094 806.398438 306.492188 807.167969 306.902344 C 807.9375 307.316406 808.683594 307.761719 809.40625 308.246094 C 810.132812 308.730469 810.832031 309.25 811.503906 309.804688 C 812.179688 310.359375 812.824219 310.941406 813.441406 311.558594 C 814.058594 312.175781 814.640625 312.820312 815.195312 313.496094 C 815.75 314.167969 816.269531 314.867188 816.753906 315.59375 C 817.238281 316.316406 817.683594 317.0625 818.097656 317.832031 C 818.507812 318.601562 818.878906 319.386719 819.214844 320.195312 C 819.546875 321 819.84375 321.816406 820.097656 322.652344 C 820.351562 323.488281 820.5625 324.332031 820.734375 325.1875 C 820.902344 326.039062 821.03125 326.902344 821.117188 327.769531 C 821.207031 328.636719 821.25 329.507812 821.25 330.378906 Z M 821.25 479.621094 " fill-opacity="1" fill-rule="nonzero"/></svg>