<svg xmlns="http://www.w3.org/2000/svg" xmlns:xlink="http://www.w3.org/1999/xlink" width="150" zoomAndPan="magnify" viewBox="0 0 1440 809.999993" height="150" preserveAspectRatio="xMidYMid meet" version="1.0"><path fill="#ffffff" d="M 720 243 C 630.515625 243 558 315.515625 558 405 C 558 494.484375 630.515625 567 720 567 C 809.484375 567 882 494.484375 882 405 C 881.859375 315.515625 809.34375 243 720 243 Z M 720.703125 523.660156 C 709.058594 523.660156 697.699219 521.976562 687.039062 518.75 C 689.703125 513.140625 697.699219 496.589844 699.523438 489.71875 C 701.34375 482.984375 706.816406 460.683594 706.816406 460.683594 C 714.53125 469.238281 724.066406 474.847656 735.429688 474.429688 C 778.910156 473.167969 796.441406 437.679688 799.246094 403.316406 C 801.492188 374.421875 783.816406 327.015625 722.523438 327.015625 C 666.28125 327.015625 645.800781 366.289062 641.875 389.429688 C 637.527344 415.097656 649.589844 444.554688 669.507812 445.253906 L 673.574219 429.40625 C 665.160156 419.445312 660.671875 407.382812 664.457031 389.289062 C 667.542969 374.28125 685.777344 345.109375 723.226562 346.089844 C 766.847656 347.214844 773.4375 383.820312 770.214844 405.421875 C 761.65625 461.804688 729.539062 454.511719 728.414062 454.230469 C 716.074219 451.847656 713.40625 442.871094 713.96875 434.035156 C 714.390625 424.777344 722.105469 414.957031 724.488281 398.6875 C 726.03125 388.308594 724.769531 374.421875 711.023438 372.878906 C 696.296875 371.335938 689.421875 386.484375 688.160156 392.238281 C 685.496094 405.421875 687.039062 410.890625 690.546875 421.691406 C 690.546875 421.691406 679.324219 469.800781 674.976562 486.210938 C 673.574219 491.820312 673.011719 505.988281 672.871094 513.28125 C 631.074219 494.90625 601.902344 453.25 601.902344 404.578125 C 601.902344 339.078125 655.058594 285.917969 720.5625 285.917969 C 786.0625 285.917969 839.222656 339.078125 839.222656 404.578125 C 839.359375 470.5 786.203125 523.660156 720.703125 523.660156 Z M 720.703125 523.660156 " fill-opacity="1" fill-rule="nonzero"/></svg>