<svg xmlns="http://www.w3.org/2000/svg" xmlns:xlink="http://www.w3.org/1999/xlink" width="150" zoomAndPan="magnify" viewBox="0 0 1440 809.999993" height="150" preserveAspectRatio="xMidYMid meet" version="1.0"><path fill="#ffffff" d="M 720 243 C 630.515625 243 558 315.515625 558 405 C 558 494.484375 630.515625 567 720 567 C 809.484375 567 882 494.484375 882 405 C 881.859375 315.515625 809.34375 243 720 243 Z M 807.242188 342.445312 L 775.683594 490.417969 C 774.140625 497.851562 765.445312 501.078125 759.414062 496.589844 L 684.515625 440.765625 L 767.265625 366.007812 C 767.265625 366.007812 772.878906 361.378906 771.335938 359.976562 C 769.652344 358.292969 763.480469 361.941406 760.394531 364.042969 C 757.167969 366.429688 658.988281 428.421875 658.988281 428.421875 L 609.195312 412.996094 C 603.585938 411.3125 603.585938 403.597656 611.71875 400.230469 L 794.617188 329.820312 C 802.613281 325.894531 808.925781 334.871094 807.242188 342.445312 Z M 807.242188 342.445312 " fill-opacity="1" fill-rule="nonzero"/></svg>