<svg xmlns="http://www.w3.org/2000/svg" xmlns:xlink="http://www.w3.org/1999/xlink" width="500" zoomAndPan="magnify" viewBox="0 0 375 374.999991" height="500" preserveAspectRatio="xMidYMid meet" version="1.0"><defs><g/><clipPath id="dbf2b63daf"><path d="M 33.035156 109 L 342 109 L 342 187.03125 L 33.035156 187.03125 Z M 33.035156 109 " clip-rule="nonzero"/></clipPath></defs><g fill="#556b2f" fill-opacity="1"><g transform="translate(27.287037, 213.473424)"><g><path d="M 21.03125 -15.53125 L 17.078125 0 L 13.328125 0 L 11.21875 -8.15625 C 11.175781 -8.3125 11.117188 -8.546875 11.046875 -8.859375 C 10.984375 -9.179688 10.910156 -9.53125 10.828125 -9.90625 C 10.753906 -10.289062 10.6875 -10.648438 10.625 -10.984375 C 10.5625 -11.316406 10.519531 -11.582031 10.5 -11.78125 C 10.476562 -11.582031 10.4375 -11.316406 10.375 -10.984375 C 10.320312 -10.660156 10.253906 -10.304688 10.171875 -9.921875 C 10.097656 -9.546875 10.023438 -9.195312 9.953125 -8.875 C 9.890625 -8.550781 9.835938 -8.304688 9.796875 -8.140625 L 7.703125 0 L 3.96875 0 L 0 -15.53125 L 3.234375 -15.53125 L 5.21875 -7.046875 C 5.28125 -6.796875 5.347656 -6.492188 5.421875 -6.140625 C 5.492188 -5.785156 5.566406 -5.414062 5.640625 -5.03125 C 5.710938 -4.644531 5.78125 -4.269531 5.84375 -3.90625 C 5.90625 -3.550781 5.953125 -3.242188 5.984375 -2.984375 C 6.015625 -3.253906 6.054688 -3.566406 6.109375 -3.921875 C 6.171875 -4.273438 6.234375 -4.640625 6.296875 -5.015625 C 6.367188 -5.390625 6.4375 -5.734375 6.5 -6.046875 C 6.570312 -6.367188 6.640625 -6.628906 6.703125 -6.828125 L 8.96875 -15.53125 L 12.078125 -15.53125 L 14.34375 -6.828125 C 14.382812 -6.640625 14.4375 -6.382812 14.5 -6.0625 C 14.570312 -5.738281 14.644531 -5.390625 14.71875 -5.015625 C 14.789062 -4.640625 14.851562 -4.269531 14.90625 -3.90625 C 14.96875 -3.550781 15.015625 -3.242188 15.046875 -2.984375 C 15.097656 -3.335938 15.164062 -3.765625 15.25 -4.265625 C 15.34375 -4.773438 15.441406 -5.28125 15.546875 -5.78125 C 15.648438 -6.289062 15.738281 -6.710938 15.8125 -7.046875 L 17.78125 -15.53125 Z M 21.03125 -15.53125 "/></g></g></g><g fill="#556b2f" fill-opacity="1"><g transform="translate(50.860004, 213.473424)"><g><path d="M 1.953125 0 L 1.953125 -15.53125 L 5.25 -15.53125 L 5.25 0 Z M 1.953125 0 "/></g></g></g><g fill="#556b2f" fill-opacity="1"><g transform="translate(60.605578, 213.473424)"><g><path d="M 1.953125 0 L 1.953125 -15.53125 L 5.25 -15.53125 L 5.25 -2.71875 L 11.546875 -2.71875 L 11.546875 0 Z M 1.953125 0 "/></g></g></g><g fill="#556b2f" fill-opacity="1"><g transform="translate(75.438188, 213.473424)"><g><path d="M 14.84375 -7.90625 C 14.84375 -6.15625 14.503906 -4.695312 13.828125 -3.53125 C 13.160156 -2.363281 12.191406 -1.484375 10.921875 -0.890625 C 9.660156 -0.296875 8.132812 0 6.34375 0 L 1.953125 0 L 1.953125 -15.53125 L 6.828125 -15.53125 C 8.453125 -15.53125 9.863281 -15.238281 11.0625 -14.65625 C 12.257812 -14.082031 13.1875 -13.226562 13.84375 -12.09375 C 14.507812 -10.96875 14.84375 -9.570312 14.84375 -7.90625 Z M 11.421875 -7.828125 C 11.421875 -8.972656 11.25 -9.914062 10.90625 -10.65625 C 10.570312 -11.394531 10.078125 -11.941406 9.421875 -12.296875 C 8.765625 -12.648438 7.957031 -12.828125 7 -12.828125 L 5.25 -12.828125 L 5.25 -2.71875 L 6.65625 -2.71875 C 8.257812 -2.71875 9.453125 -3.144531 10.234375 -4 C 11.023438 -4.851562 11.421875 -6.128906 11.421875 -7.828125 Z M 11.421875 -7.828125 "/></g></g></g><g fill="#556b2f" fill-opacity="1"><g transform="translate(94.083421, 213.473424)"><g><path d="M 10.890625 0 L 1.953125 0 L 1.953125 -15.53125 L 10.890625 -15.53125 L 10.890625 -12.828125 L 5.25 -12.828125 L 5.25 -9.421875 L 10.5 -9.421875 L 10.5 -6.71875 L 5.25 -6.71875 L 5.25 -2.71875 L 10.890625 -2.71875 Z M 10.890625 0 "/></g></g></g><g fill="#556b2f" fill-opacity="1"><g transform="translate(108.809832, 213.473424)"><g><path d="M 6.484375 -15.53125 C 7.890625 -15.53125 9.050781 -15.359375 9.96875 -15.015625 C 10.882812 -14.671875 11.566406 -14.15625 12.015625 -13.46875 C 12.460938 -12.789062 12.6875 -11.925781 12.6875 -10.875 C 12.6875 -10.164062 12.550781 -9.546875 12.28125 -9.015625 C 12.007812 -8.484375 11.65625 -8.03125 11.21875 -7.65625 C 10.78125 -7.289062 10.304688 -6.992188 9.796875 -6.765625 L 14.359375 0 L 10.703125 0 L 7 -5.953125 L 5.25 -5.953125 L 5.25 0 L 1.953125 0 L 1.953125 -15.53125 Z M 6.25 -12.828125 L 5.25 -12.828125 L 5.25 -8.640625 L 6.3125 -8.640625 C 7.394531 -8.640625 8.171875 -8.820312 8.640625 -9.1875 C 9.117188 -9.550781 9.359375 -10.085938 9.359375 -10.796875 C 9.359375 -11.523438 9.101562 -12.046875 8.59375 -12.359375 C 8.09375 -12.671875 7.3125 -12.828125 6.25 -12.828125 Z M 6.25 -12.828125 "/></g></g></g><g fill="#556b2f" fill-opacity="1"><g transform="translate(125.713361, 213.473424)"><g><path d="M 15.734375 0 L 11.546875 0 L 4.796875 -11.75 L 4.6875 -11.75 C 4.71875 -11.257812 4.742188 -10.765625 4.765625 -10.265625 C 4.785156 -9.773438 4.804688 -9.28125 4.828125 -8.78125 C 4.847656 -8.289062 4.867188 -7.800781 4.890625 -7.3125 L 4.890625 0 L 1.953125 0 L 1.953125 -15.53125 L 6.109375 -15.53125 L 12.84375 -3.890625 L 12.921875 -3.890625 C 12.910156 -4.378906 12.894531 -4.859375 12.875 -5.328125 C 12.851562 -5.804688 12.832031 -6.28125 12.8125 -6.75 C 12.789062 -7.226562 12.773438 -7.703125 12.765625 -8.171875 L 12.765625 -15.53125 L 15.734375 -15.53125 Z M 15.734375 0 "/></g></g></g><g fill="#556b2f" fill-opacity="1"><g transform="translate(145.940987, 213.473424)"><g><path d="M 10.890625 0 L 1.953125 0 L 1.953125 -15.53125 L 10.890625 -15.53125 L 10.890625 -12.828125 L 5.25 -12.828125 L 5.25 -9.421875 L 10.5 -9.421875 L 10.5 -6.71875 L 5.25 -6.71875 L 5.25 -2.71875 L 10.890625 -2.71875 Z M 10.890625 0 "/></g></g></g><g fill="#556b2f" fill-opacity="1"><g transform="translate(160.667392, 213.473424)"><g><path d="M 11.125 -4.3125 C 11.125 -3.394531 10.898438 -2.59375 10.453125 -1.90625 C 10.003906 -1.226562 9.351562 -0.703125 8.5 -0.328125 C 7.644531 0.0351562 6.609375 0.21875 5.390625 0.21875 C 4.859375 0.21875 4.332031 0.179688 3.8125 0.109375 C 3.300781 0.0351562 2.8125 -0.0664062 2.34375 -0.203125 C 1.875 -0.347656 1.425781 -0.519531 1 -0.71875 L 1 -3.78125 C 1.738281 -3.457031 2.503906 -3.160156 3.296875 -2.890625 C 4.085938 -2.628906 4.875 -2.5 5.65625 -2.5 C 6.1875 -2.5 6.613281 -2.570312 6.9375 -2.71875 C 7.269531 -2.863281 7.507812 -3.054688 7.65625 -3.296875 C 7.8125 -3.546875 7.890625 -3.832031 7.890625 -4.15625 C 7.890625 -4.539062 7.757812 -4.867188 7.5 -5.140625 C 7.238281 -5.421875 6.878906 -5.679688 6.421875 -5.921875 C 5.960938 -6.160156 5.445312 -6.421875 4.875 -6.703125 C 4.507812 -6.867188 4.113281 -7.070312 3.6875 -7.3125 C 3.269531 -7.5625 2.867188 -7.863281 2.484375 -8.21875 C 2.097656 -8.570312 1.78125 -9 1.53125 -9.5 C 1.289062 -10.007812 1.171875 -10.617188 1.171875 -11.328125 C 1.171875 -12.253906 1.382812 -13.046875 1.8125 -13.703125 C 2.238281 -14.367188 2.847656 -14.875 3.640625 -15.21875 C 4.429688 -15.570312 5.363281 -15.75 6.4375 -15.75 C 7.238281 -15.75 8.003906 -15.65625 8.734375 -15.46875 C 9.472656 -15.28125 10.242188 -15.007812 11.046875 -14.65625 L 9.984375 -12.09375 C 9.265625 -12.382812 8.625 -12.609375 8.0625 -12.765625 C 7.5 -12.929688 6.921875 -13.015625 6.328125 -13.015625 C 5.921875 -13.015625 5.570312 -12.945312 5.28125 -12.8125 C 4.988281 -12.675781 4.765625 -12.488281 4.609375 -12.25 C 4.460938 -12.019531 4.390625 -11.75 4.390625 -11.4375 C 4.390625 -11.070312 4.5 -10.757812 4.71875 -10.5 C 4.9375 -10.25 5.257812 -10.007812 5.6875 -9.78125 C 6.125 -9.550781 6.671875 -9.28125 7.328125 -8.96875 C 8.117188 -8.59375 8.796875 -8.195312 9.359375 -7.78125 C 9.921875 -7.375 10.351562 -6.894531 10.65625 -6.34375 C 10.96875 -5.800781 11.125 -5.125 11.125 -4.3125 Z M 11.125 -4.3125 "/></g></g></g><g fill="#556b2f" fill-opacity="1"><g transform="translate(175.192015, 213.473424)"><g><path d="M 11.125 -4.3125 C 11.125 -3.394531 10.898438 -2.59375 10.453125 -1.90625 C 10.003906 -1.226562 9.351562 -0.703125 8.5 -0.328125 C 7.644531 0.0351562 6.609375 0.21875 5.390625 0.21875 C 4.859375 0.21875 4.332031 0.179688 3.8125 0.109375 C 3.300781 0.0351562 2.8125 -0.0664062 2.34375 -0.203125 C 1.875 -0.347656 1.425781 -0.519531 1 -0.71875 L 1 -3.78125 C 1.738281 -3.457031 2.503906 -3.160156 3.296875 -2.890625 C 4.085938 -2.628906 4.875 -2.5 5.65625 -2.5 C 6.1875 -2.5 6.613281 -2.570312 6.9375 -2.71875 C 7.269531 -2.863281 7.507812 -3.054688 7.65625 -3.296875 C 7.8125 -3.546875 7.890625 -3.832031 7.890625 -4.15625 C 7.890625 -4.539062 7.757812 -4.867188 7.5 -5.140625 C 7.238281 -5.421875 6.878906 -5.679688 6.421875 -5.921875 C 5.960938 -6.160156 5.445312 -6.421875 4.875 -6.703125 C 4.507812 -6.867188 4.113281 -7.070312 3.6875 -7.3125 C 3.269531 -7.5625 2.867188 -7.863281 2.484375 -8.21875 C 2.097656 -8.570312 1.78125 -9 1.53125 -9.5 C 1.289062 -10.007812 1.171875 -10.617188 1.171875 -11.328125 C 1.171875 -12.253906 1.382812 -13.046875 1.8125 -13.703125 C 2.238281 -14.367188 2.847656 -14.875 3.640625 -15.21875 C 4.429688 -15.570312 5.363281 -15.75 6.4375 -15.75 C 7.238281 -15.75 8.003906 -15.65625 8.734375 -15.46875 C 9.472656 -15.28125 10.242188 -15.007812 11.046875 -14.65625 L 9.984375 -12.09375 C 9.265625 -12.382812 8.625 -12.609375 8.0625 -12.765625 C 7.5 -12.929688 6.921875 -13.015625 6.328125 -13.015625 C 5.921875 -13.015625 5.570312 -12.945312 5.28125 -12.8125 C 4.988281 -12.675781 4.765625 -12.488281 4.609375 -12.25 C 4.460938 -12.019531 4.390625 -11.75 4.390625 -11.4375 C 4.390625 -11.070312 4.5 -10.757812 4.71875 -10.5 C 4.9375 -10.25 5.257812 -10.007812 5.6875 -9.78125 C 6.125 -9.550781 6.671875 -9.28125 7.328125 -8.96875 C 8.117188 -8.59375 8.796875 -8.195312 9.359375 -7.78125 C 9.921875 -7.375 10.351562 -6.894531 10.65625 -6.34375 C 10.96875 -5.800781 11.125 -5.125 11.125 -4.3125 Z M 11.125 -4.3125 "/></g></g></g><g fill="#556b2f" fill-opacity="1"><g transform="translate(189.716637, 213.473424)"><g/></g></g><g fill="#556b2f" fill-opacity="1"><g transform="translate(197.911671, 213.473424)"><g><path d="M 21.03125 -15.53125 L 17.078125 0 L 13.328125 0 L 11.21875 -8.15625 C 11.175781 -8.3125 11.117188 -8.546875 11.046875 -8.859375 C 10.984375 -9.179688 10.910156 -9.53125 10.828125 -9.90625 C 10.753906 -10.289062 10.6875 -10.648438 10.625 -10.984375 C 10.5625 -11.316406 10.519531 -11.582031 10.5 -11.78125 C 10.476562 -11.582031 10.4375 -11.316406 10.375 -10.984375 C 10.320312 -10.660156 10.253906 -10.304688 10.171875 -9.921875 C 10.097656 -9.546875 10.023438 -9.195312 9.953125 -8.875 C 9.890625 -8.550781 9.835938 -8.304688 9.796875 -8.140625 L 7.703125 0 L 3.96875 0 L 0 -15.53125 L 3.234375 -15.53125 L 5.21875 -7.046875 C 5.28125 -6.796875 5.347656 -6.492188 5.421875 -6.140625 C 5.492188 -5.785156 5.566406 -5.414062 5.640625 -5.03125 C 5.710938 -4.644531 5.78125 -4.269531 5.84375 -3.90625 C 5.90625 -3.550781 5.953125 -3.242188 5.984375 -2.984375 C 6.015625 -3.253906 6.054688 -3.566406 6.109375 -3.921875 C 6.171875 -4.273438 6.234375 -4.640625 6.296875 -5.015625 C 6.367188 -5.390625 6.4375 -5.734375 6.5 -6.046875 C 6.570312 -6.367188 6.640625 -6.628906 6.703125 -6.828125 L 8.96875 -15.53125 L 12.078125 -15.53125 L 14.34375 -6.828125 C 14.382812 -6.640625 14.4375 -6.382812 14.5 -6.0625 C 14.570312 -5.738281 14.644531 -5.390625 14.71875 -5.015625 C 14.789062 -4.640625 14.851562 -4.269531 14.90625 -3.90625 C 14.96875 -3.550781 15.015625 -3.242188 15.046875 -2.984375 C 15.097656 -3.335938 15.164062 -3.765625 15.25 -4.265625 C 15.34375 -4.773438 15.441406 -5.28125 15.546875 -5.78125 C 15.648438 -6.289062 15.738281 -6.710938 15.8125 -7.046875 L 17.78125 -15.53125 Z M 21.03125 -15.53125 "/></g></g></g><g fill="#556b2f" fill-opacity="1"><g transform="translate(221.484633, 213.473424)"><g><path d="M 11.453125 0 L 10.328125 -3.703125 L 4.671875 -3.703125 L 3.546875 0 L 0 0 L 5.484375 -15.59375 L 9.5 -15.59375 L 15 0 Z M 9.546875 -6.453125 L 8.421875 -10.0625 C 8.347656 -10.300781 8.253906 -10.609375 8.140625 -10.984375 C 8.023438 -11.367188 7.90625 -11.757812 7.78125 -12.15625 C 7.664062 -12.550781 7.578125 -12.890625 7.515625 -13.171875 C 7.441406 -12.890625 7.34375 -12.53125 7.21875 -12.09375 C 7.09375 -11.664062 6.972656 -11.257812 6.859375 -10.875 C 6.742188 -10.5 6.660156 -10.226562 6.609375 -10.0625 L 5.5 -6.453125 Z M 9.546875 -6.453125 "/></g></g></g><g fill="#556b2f" fill-opacity="1"><g transform="translate(239.036, 213.473424)"><g><path d="M 6.78125 -9.140625 L 10.03125 -15.53125 L 13.578125 -15.53125 L 8.421875 -6.046875 L 8.421875 0 L 5.15625 0 L 5.15625 -5.9375 L 0 -15.53125 L 3.5625 -15.53125 Z M 6.78125 -9.140625 "/></g></g></g><g fill="#556b2f" fill-opacity="1"><g transform="translate(255.153652, 213.473424)"><g><path d="M 5.1875 0 L 1.953125 0 L 1.953125 -15.53125 L 10.859375 -15.53125 L 10.859375 -12.828125 L 5.1875 -12.828125 L 5.1875 -8.828125 L 10.453125 -8.828125 L 10.453125 -6.140625 L 5.1875 -6.140625 Z M 5.1875 0 "/></g></g></g><g fill="#556b2f" fill-opacity="1"><g transform="translate(269.635806, 213.473424)"><g><path d="M 11.453125 0 L 10.328125 -3.703125 L 4.671875 -3.703125 L 3.546875 0 L 0 0 L 5.484375 -15.59375 L 9.5 -15.59375 L 15 0 Z M 9.546875 -6.453125 L 8.421875 -10.0625 C 8.347656 -10.300781 8.253906 -10.609375 8.140625 -10.984375 C 8.023438 -11.367188 7.90625 -11.757812 7.78125 -12.15625 C 7.664062 -12.550781 7.578125 -12.890625 7.515625 -13.171875 C 7.441406 -12.890625 7.34375 -12.53125 7.21875 -12.09375 C 7.09375 -11.664062 6.972656 -11.257812 6.859375 -10.875 C 6.742188 -10.5 6.660156 -10.226562 6.609375 -10.0625 L 5.5 -6.453125 Z M 9.546875 -6.453125 "/></g></g></g><g fill="#556b2f" fill-opacity="1"><g transform="translate(287.187174, 213.473424)"><g><path d="M 6.484375 -15.53125 C 7.890625 -15.53125 9.050781 -15.359375 9.96875 -15.015625 C 10.882812 -14.671875 11.566406 -14.15625 12.015625 -13.46875 C 12.460938 -12.789062 12.6875 -11.925781 12.6875 -10.875 C 12.6875 -10.164062 12.550781 -9.546875 12.28125 -9.015625 C 12.007812 -8.484375 11.65625 -8.03125 11.21875 -7.65625 C 10.78125 -7.289062 10.304688 -6.992188 9.796875 -6.765625 L 14.359375 0 L 10.703125 0 L 7 -5.953125 L 5.25 -5.953125 L 5.25 0 L 1.953125 0 L 1.953125 -15.53125 Z M 6.25 -12.828125 L 5.25 -12.828125 L 5.25 -8.640625 L 6.3125 -8.640625 C 7.394531 -8.640625 8.171875 -8.820312 8.640625 -9.1875 C 9.117188 -9.550781 9.359375 -10.085938 9.359375 -10.796875 C 9.359375 -11.523438 9.101562 -12.046875 8.59375 -12.359375 C 8.09375 -12.671875 7.3125 -12.828125 6.25 -12.828125 Z M 6.25 -12.828125 "/></g></g></g><g fill="#556b2f" fill-opacity="1"><g transform="translate(304.090714, 213.473424)"><g><path d="M 10.890625 0 L 1.953125 0 L 1.953125 -15.53125 L 10.890625 -15.53125 L 10.890625 -12.828125 L 5.25 -12.828125 L 5.25 -9.421875 L 10.5 -9.421875 L 10.5 -6.71875 L 5.25 -6.71875 L 5.25 -2.71875 L 10.890625 -2.71875 Z M 10.890625 0 "/></g></g></g><g fill="#556b2f" fill-opacity="1"><g transform="translate(318.81713, 213.473424)"><g><path d="M 6.484375 -15.53125 C 7.890625 -15.53125 9.050781 -15.359375 9.96875 -15.015625 C 10.882812 -14.671875 11.566406 -14.15625 12.015625 -13.46875 C 12.460938 -12.789062 12.6875 -11.925781 12.6875 -10.875 C 12.6875 -10.164062 12.550781 -9.546875 12.28125 -9.015625 C 12.007812 -8.484375 11.65625 -8.03125 11.21875 -7.65625 C 10.78125 -7.289062 10.304688 -6.992188 9.796875 -6.765625 L 14.359375 0 L 10.703125 0 L 7 -5.953125 L 5.25 -5.953125 L 5.25 0 L 1.953125 0 L 1.953125 -15.53125 Z M 6.25 -12.828125 L 5.25 -12.828125 L 5.25 -8.640625 L 6.3125 -8.640625 C 7.394531 -8.640625 8.171875 -8.820312 8.640625 -9.1875 C 9.117188 -9.550781 9.359375 -10.085938 9.359375 -10.796875 C 9.359375 -11.523438 9.101562 -12.046875 8.59375 -12.359375 C 8.09375 -12.671875 7.3125 -12.828125 6.25 -12.828125 Z M 6.25 -12.828125 "/></g></g></g><g fill="#556b2f" fill-opacity="1"><g transform="translate(335.720671, 213.473424)"><g><path d="M 11.125 -4.3125 C 11.125 -3.394531 10.898438 -2.59375 10.453125 -1.90625 C 10.003906 -1.226562 9.351562 -0.703125 8.5 -0.328125 C 7.644531 0.0351562 6.609375 0.21875 5.390625 0.21875 C 4.859375 0.21875 4.332031 0.179688 3.8125 0.109375 C 3.300781 0.0351562 2.8125 -0.0664062 2.34375 -0.203125 C 1.875 -0.347656 1.425781 -0.519531 1 -0.71875 L 1 -3.78125 C 1.738281 -3.457031 2.503906 -3.160156 3.296875 -2.890625 C 4.085938 -2.628906 4.875 -2.5 5.65625 -2.5 C 6.1875 -2.5 6.613281 -2.570312 6.9375 -2.71875 C 7.269531 -2.863281 7.507812 -3.054688 7.65625 -3.296875 C 7.8125 -3.546875 7.890625 -3.832031 7.890625 -4.15625 C 7.890625 -4.539062 7.757812 -4.867188 7.5 -5.140625 C 7.238281 -5.421875 6.878906 -5.679688 6.421875 -5.921875 C 5.960938 -6.160156 5.445312 -6.421875 4.875 -6.703125 C 4.507812 -6.867188 4.113281 -7.070312 3.6875 -7.3125 C 3.269531 -7.5625 2.867188 -7.863281 2.484375 -8.21875 C 2.097656 -8.570312 1.78125 -9 1.53125 -9.5 C 1.289062 -10.007812 1.171875 -10.617188 1.171875 -11.328125 C 1.171875 -12.253906 1.382812 -13.046875 1.8125 -13.703125 C 2.238281 -14.367188 2.847656 -14.875 3.640625 -15.21875 C 4.429688 -15.570312 5.363281 -15.75 6.4375 -15.75 C 7.238281 -15.75 8.003906 -15.65625 8.734375 -15.46875 C 9.472656 -15.28125 10.242188 -15.007812 11.046875 -14.65625 L 9.984375 -12.09375 C 9.265625 -12.382812 8.625 -12.609375 8.0625 -12.765625 C 7.5 -12.929688 6.921875 -13.015625 6.328125 -13.015625 C 5.921875 -13.015625 5.570312 -12.945312 5.28125 -12.8125 C 4.988281 -12.675781 4.765625 -12.488281 4.609375 -12.25 C 4.460938 -12.019531 4.390625 -11.75 4.390625 -11.4375 C 4.390625 -11.070312 4.5 -10.757812 4.71875 -10.5 C 4.9375 -10.25 5.257812 -10.007812 5.6875 -9.78125 C 6.125 -9.550781 6.671875 -9.28125 7.328125 -8.96875 C 8.117188 -8.59375 8.796875 -8.195312 9.359375 -7.78125 C 9.921875 -7.375 10.351562 -6.894531 10.65625 -6.34375 C 10.96875 -5.800781 11.125 -5.125 11.125 -4.3125 Z M 11.125 -4.3125 "/></g></g></g><g fill="#556b2f" fill-opacity="1"><g transform="translate(97.526329, 237.251)"><g><path d="M 4.234375 -9.5 C 5.460938 -9.5 6.359375 -9.234375 6.921875 -8.703125 C 7.484375 -8.179688 7.765625 -7.460938 7.765625 -6.546875 C 7.765625 -6.128906 7.703125 -5.726562 7.578125 -5.34375 C 7.453125 -4.96875 7.242188 -4.628906 6.953125 -4.328125 C 6.671875 -4.035156 6.289062 -3.800781 5.8125 -3.625 C 5.34375 -3.457031 4.765625 -3.375 4.078125 -3.375 L 3.21875 -3.375 L 3.21875 0 L 1.203125 0 L 1.203125 -9.5 Z M 4.125 -7.859375 L 3.21875 -7.859375 L 3.21875 -5.03125 L 3.875 -5.03125 C 4.25 -5.03125 4.570312 -5.078125 4.84375 -5.171875 C 5.125 -5.273438 5.34375 -5.429688 5.5 -5.640625 C 5.65625 -5.859375 5.734375 -6.132812 5.734375 -6.46875 C 5.734375 -6.9375 5.601562 -7.285156 5.34375 -7.515625 C 5.082031 -7.742188 4.675781 -7.859375 4.125 -7.859375 Z M 4.125 -7.859375 "/></g></g></g><g fill="#556b2f" fill-opacity="1"><g transform="translate(107.968193, 237.251)"><g><path d="M 6.671875 0 L 1.203125 0 L 1.203125 -9.5 L 6.671875 -9.5 L 6.671875 -7.859375 L 3.21875 -7.859375 L 3.21875 -5.765625 L 6.421875 -5.765625 L 6.421875 -4.109375 L 3.21875 -4.109375 L 3.21875 -1.671875 L 6.671875 -1.671875 Z M 6.671875 0 "/></g></g></g><g fill="#556b2f" fill-opacity="1"><g transform="translate(117.507324, 237.251)"><g><path d="M 3.96875 -9.5 C 4.832031 -9.5 5.539062 -9.394531 6.09375 -9.1875 C 6.65625 -8.976562 7.070312 -8.664062 7.34375 -8.25 C 7.625 -7.832031 7.765625 -7.300781 7.765625 -6.65625 C 7.765625 -6.21875 7.679688 -5.835938 7.515625 -5.515625 C 7.347656 -5.191406 7.128906 -4.914062 6.859375 -4.6875 C 6.597656 -4.46875 6.3125 -4.285156 6 -4.140625 L 8.78125 0 L 6.546875 0 L 4.28125 -3.640625 L 3.21875 -3.640625 L 3.21875 0 L 1.203125 0 L 1.203125 -9.5 Z M 3.828125 -7.859375 L 3.21875 -7.859375 L 3.21875 -5.28125 L 3.859375 -5.28125 C 4.523438 -5.28125 5.003906 -5.390625 5.296875 -5.609375 C 5.585938 -5.835938 5.734375 -6.171875 5.734375 -6.609375 C 5.734375 -7.054688 5.578125 -7.375 5.265625 -7.5625 C 4.953125 -7.757812 4.472656 -7.859375 3.828125 -7.859375 Z M 3.828125 -7.859375 "/></g></g></g><g fill="#556b2f" fill-opacity="1"><g transform="translate(128.377827, 237.251)"><g><path d="M 6.8125 -2.640625 C 6.8125 -2.078125 6.671875 -1.585938 6.390625 -1.171875 C 6.117188 -0.753906 5.722656 -0.429688 5.203125 -0.203125 C 4.679688 0.015625 4.046875 0.125 3.296875 0.125 C 2.972656 0.125 2.648438 0.101562 2.328125 0.0625 C 2.015625 0.0195312 1.710938 -0.0390625 1.421875 -0.125 C 1.140625 -0.207031 0.867188 -0.3125 0.609375 -0.4375 L 0.609375 -2.3125 C 1.054688 -2.113281 1.523438 -1.929688 2.015625 -1.765625 C 2.503906 -1.609375 2.984375 -1.53125 3.453125 -1.53125 C 3.785156 -1.53125 4.050781 -1.570312 4.25 -1.65625 C 4.457031 -1.75 4.601562 -1.867188 4.6875 -2.015625 C 4.78125 -2.171875 4.828125 -2.347656 4.828125 -2.546875 C 4.828125 -2.785156 4.742188 -2.988281 4.578125 -3.15625 C 4.421875 -3.320312 4.203125 -3.476562 3.921875 -3.625 C 3.648438 -3.769531 3.335938 -3.929688 2.984375 -4.109375 C 2.765625 -4.203125 2.523438 -4.320312 2.265625 -4.46875 C 2.003906 -4.625 1.753906 -4.8125 1.515625 -5.03125 C 1.285156 -5.25 1.09375 -5.507812 0.9375 -5.8125 C 0.789062 -6.125 0.71875 -6.5 0.71875 -6.9375 C 0.71875 -7.5 0.847656 -7.984375 1.109375 -8.390625 C 1.367188 -8.796875 1.738281 -9.101562 2.21875 -9.3125 C 2.707031 -9.53125 3.28125 -9.640625 3.9375 -9.640625 C 4.4375 -9.640625 4.910156 -9.582031 5.359375 -9.46875 C 5.804688 -9.351562 6.273438 -9.1875 6.765625 -8.96875 L 6.109375 -7.40625 C 5.671875 -7.582031 5.273438 -7.71875 4.921875 -7.8125 C 4.578125 -7.914062 4.226562 -7.96875 3.875 -7.96875 C 3.625 -7.96875 3.410156 -7.925781 3.234375 -7.84375 C 3.054688 -7.757812 2.921875 -7.644531 2.828125 -7.5 C 2.734375 -7.351562 2.6875 -7.1875 2.6875 -7 C 2.6875 -6.769531 2.753906 -6.578125 2.890625 -6.421875 C 3.023438 -6.273438 3.222656 -6.128906 3.484375 -5.984375 C 3.753906 -5.835938 4.085938 -5.671875 4.484375 -5.484375 C 4.972656 -5.253906 5.390625 -5.015625 5.734375 -4.765625 C 6.078125 -4.515625 6.34375 -4.222656 6.53125 -3.890625 C 6.71875 -3.554688 6.8125 -3.140625 6.8125 -2.640625 Z M 6.8125 -2.640625 "/></g></g></g><g fill="#556b2f" fill-opacity="1"><g transform="translate(137.793556, 237.251)"><g><path d="M 9.828125 -4.765625 C 9.828125 -4.035156 9.734375 -3.367188 9.546875 -2.765625 C 9.367188 -2.160156 9.09375 -1.640625 8.71875 -1.203125 C 8.351562 -0.773438 7.882812 -0.445312 7.3125 -0.21875 C 6.75 0.0078125 6.078125 0.125 5.296875 0.125 C 4.523438 0.125 3.851562 0.0078125 3.28125 -0.21875 C 2.71875 -0.445312 2.25 -0.773438 1.875 -1.203125 C 1.5 -1.640625 1.222656 -2.160156 1.046875 -2.765625 C 0.867188 -3.367188 0.78125 -4.039062 0.78125 -4.78125 C 0.78125 -5.757812 0.9375 -6.613281 1.25 -7.34375 C 1.570312 -8.070312 2.066406 -8.640625 2.734375 -9.046875 C 3.410156 -9.453125 4.269531 -9.65625 5.3125 -9.65625 C 6.34375 -9.65625 7.191406 -9.453125 7.859375 -9.046875 C 8.523438 -8.640625 9.019531 -8.070312 9.34375 -7.34375 C 9.664062 -6.613281 9.828125 -5.753906 9.828125 -4.765625 Z M 2.890625 -4.765625 C 2.890625 -4.097656 2.972656 -3.523438 3.140625 -3.046875 C 3.304688 -2.566406 3.566406 -2.195312 3.921875 -1.9375 C 4.273438 -1.6875 4.734375 -1.5625 5.296875 -1.5625 C 5.867188 -1.5625 6.332031 -1.6875 6.6875 -1.9375 C 7.039062 -2.195312 7.296875 -2.566406 7.453125 -3.046875 C 7.617188 -3.523438 7.703125 -4.097656 7.703125 -4.765625 C 7.703125 -5.765625 7.515625 -6.546875 7.140625 -7.109375 C 6.773438 -7.679688 6.164062 -7.96875 5.3125 -7.96875 C 4.738281 -7.96875 4.273438 -7.835938 3.921875 -7.578125 C 3.566406 -7.328125 3.304688 -6.960938 3.140625 -6.484375 C 2.972656 -6.003906 2.890625 -5.429688 2.890625 -4.765625 Z M 2.890625 -4.765625 "/></g></g></g><g fill="#556b2f" fill-opacity="1"><g transform="translate(150.469532, 237.251)"><g><path d="M 9.625 0 L 7.0625 0 L 2.9375 -7.1875 L 2.875 -7.1875 C 2.894531 -6.882812 2.910156 -6.582031 2.921875 -6.28125 C 2.929688 -5.976562 2.941406 -5.675781 2.953125 -5.375 C 2.972656 -5.070312 2.988281 -4.769531 3 -4.46875 L 3 0 L 1.203125 0 L 1.203125 -9.5 L 3.734375 -9.5 L 7.859375 -2.390625 L 7.90625 -2.390625 C 7.894531 -2.679688 7.882812 -2.972656 7.875 -3.265625 C 7.863281 -3.554688 7.851562 -3.84375 7.84375 -4.125 C 7.832031 -4.414062 7.820312 -4.707031 7.8125 -5 L 7.8125 -9.5 L 9.625 -9.5 Z M 9.625 0 "/></g></g></g><g fill="#556b2f" fill-opacity="1"><g transform="translate(163.372824, 237.251)"><g><path d="M 7.015625 0 L 6.328125 -2.265625 L 2.859375 -2.265625 L 2.171875 0 L 0 0 L 3.359375 -9.546875 L 5.8125 -9.546875 L 9.1875 0 Z M 5.84375 -3.953125 L 5.15625 -6.15625 C 5.113281 -6.3125 5.054688 -6.503906 4.984375 -6.734375 C 4.910156 -6.960938 4.835938 -7.195312 4.765625 -7.4375 C 4.691406 -7.675781 4.632812 -7.882812 4.59375 -8.0625 C 4.550781 -7.882812 4.488281 -7.664062 4.40625 -7.40625 C 4.332031 -7.144531 4.257812 -6.894531 4.1875 -6.65625 C 4.125 -6.425781 4.078125 -6.257812 4.046875 -6.15625 L 3.359375 -3.953125 Z M 5.84375 -3.953125 "/></g></g></g><g fill="#556b2f" fill-opacity="1"><g transform="translate(174.639497, 237.251)"><g><path d="M 1.203125 0 L 1.203125 -9.5 L 3.21875 -9.5 L 3.21875 -1.671875 L 7.0625 -1.671875 L 7.0625 0 Z M 1.203125 0 "/></g></g></g><g fill="#556b2f" fill-opacity="1"><g transform="translate(184.243573, 237.251)"><g/></g></g><g fill="#556b2f" fill-opacity="1"><g transform="translate(189.788567, 237.251)"><g><path d="M 7.015625 0 L 6.328125 -2.265625 L 2.859375 -2.265625 L 2.171875 0 L 0 0 L 3.359375 -9.546875 L 5.8125 -9.546875 L 9.1875 0 Z M 5.84375 -3.953125 L 5.15625 -6.15625 C 5.113281 -6.3125 5.054688 -6.503906 4.984375 -6.734375 C 4.910156 -6.960938 4.835938 -7.195312 4.765625 -7.4375 C 4.691406 -7.675781 4.632812 -7.882812 4.59375 -8.0625 C 4.550781 -7.882812 4.488281 -7.664062 4.40625 -7.40625 C 4.332031 -7.144531 4.257812 -6.894531 4.1875 -6.65625 C 4.125 -6.425781 4.078125 -6.257812 4.046875 -6.15625 L 3.359375 -3.953125 Z M 5.84375 -3.953125 "/></g></g></g><g fill="#556b2f" fill-opacity="1"><g transform="translate(201.05524, 237.251)"><g><path d="M 6.8125 -2.640625 C 6.8125 -2.078125 6.671875 -1.585938 6.390625 -1.171875 C 6.117188 -0.753906 5.722656 -0.429688 5.203125 -0.203125 C 4.679688 0.015625 4.046875 0.125 3.296875 0.125 C 2.972656 0.125 2.648438 0.101562 2.328125 0.0625 C 2.015625 0.0195312 1.710938 -0.0390625 1.421875 -0.125 C 1.140625 -0.207031 0.867188 -0.3125 0.609375 -0.4375 L 0.609375 -2.3125 C 1.054688 -2.113281 1.523438 -1.929688 2.015625 -1.765625 C 2.503906 -1.609375 2.984375 -1.53125 3.453125 -1.53125 C 3.785156 -1.53125 4.050781 -1.570312 4.25 -1.65625 C 4.457031 -1.75 4.601562 -1.867188 4.6875 -2.015625 C 4.78125 -2.171875 4.828125 -2.347656 4.828125 -2.546875 C 4.828125 -2.785156 4.742188 -2.988281 4.578125 -3.15625 C 4.421875 -3.320312 4.203125 -3.476562 3.921875 -3.625 C 3.648438 -3.769531 3.335938 -3.929688 2.984375 -4.109375 C 2.765625 -4.203125 2.523438 -4.320312 2.265625 -4.46875 C 2.003906 -4.625 1.753906 -4.8125 1.515625 -5.03125 C 1.285156 -5.25 1.09375 -5.507812 0.9375 -5.8125 C 0.789062 -6.125 0.71875 -6.5 0.71875 -6.9375 C 0.71875 -7.5 0.847656 -7.984375 1.109375 -8.390625 C 1.367188 -8.796875 1.738281 -9.101562 2.21875 -9.3125 C 2.707031 -9.53125 3.28125 -9.640625 3.9375 -9.640625 C 4.4375 -9.640625 4.910156 -9.582031 5.359375 -9.46875 C 5.804688 -9.351562 6.273438 -9.1875 6.765625 -8.96875 L 6.109375 -7.40625 C 5.671875 -7.582031 5.273438 -7.71875 4.921875 -7.8125 C 4.578125 -7.914062 4.226562 -7.96875 3.875 -7.96875 C 3.625 -7.96875 3.410156 -7.925781 3.234375 -7.84375 C 3.054688 -7.757812 2.921875 -7.644531 2.828125 -7.5 C 2.734375 -7.351562 2.6875 -7.1875 2.6875 -7 C 2.6875 -6.769531 2.753906 -6.578125 2.890625 -6.421875 C 3.023438 -6.273438 3.222656 -6.128906 3.484375 -5.984375 C 3.753906 -5.835938 4.085938 -5.671875 4.484375 -5.484375 C 4.972656 -5.253906 5.390625 -5.015625 5.734375 -4.765625 C 6.078125 -4.515625 6.34375 -4.222656 6.53125 -3.890625 C 6.71875 -3.554688 6.8125 -3.140625 6.8125 -2.640625 Z M 6.8125 -2.640625 "/></g></g></g><g fill="#556b2f" fill-opacity="1"><g transform="translate(210.470969, 237.251)"><g><path d="M 6.8125 -2.640625 C 6.8125 -2.078125 6.671875 -1.585938 6.390625 -1.171875 C 6.117188 -0.753906 5.722656 -0.429688 5.203125 -0.203125 C 4.679688 0.015625 4.046875 0.125 3.296875 0.125 C 2.972656 0.125 2.648438 0.101562 2.328125 0.0625 C 2.015625 0.0195312 1.710938 -0.0390625 1.421875 -0.125 C 1.140625 -0.207031 0.867188 -0.3125 0.609375 -0.4375 L 0.609375 -2.3125 C 1.054688 -2.113281 1.523438 -1.929688 2.015625 -1.765625 C 2.503906 -1.609375 2.984375 -1.53125 3.453125 -1.53125 C 3.785156 -1.53125 4.050781 -1.570312 4.25 -1.65625 C 4.457031 -1.75 4.601562 -1.867188 4.6875 -2.015625 C 4.78125 -2.171875 4.828125 -2.347656 4.828125 -2.546875 C 4.828125 -2.785156 4.742188 -2.988281 4.578125 -3.15625 C 4.421875 -3.320312 4.203125 -3.476562 3.921875 -3.625 C 3.648438 -3.769531 3.335938 -3.929688 2.984375 -4.109375 C 2.765625 -4.203125 2.523438 -4.320312 2.265625 -4.46875 C 2.003906 -4.625 1.753906 -4.8125 1.515625 -5.03125 C 1.285156 -5.25 1.09375 -5.507812 0.9375 -5.8125 C 0.789062 -6.125 0.71875 -6.5 0.71875 -6.9375 C 0.71875 -7.5 0.847656 -7.984375 1.109375 -8.390625 C 1.367188 -8.796875 1.738281 -9.101562 2.21875 -9.3125 C 2.707031 -9.53125 3.28125 -9.640625 3.9375 -9.640625 C 4.4375 -9.640625 4.910156 -9.582031 5.359375 -9.46875 C 5.804688 -9.351562 6.273438 -9.1875 6.765625 -8.96875 L 6.109375 -7.40625 C 5.671875 -7.582031 5.273438 -7.71875 4.921875 -7.8125 C 4.578125 -7.914062 4.226562 -7.96875 3.875 -7.96875 C 3.625 -7.96875 3.410156 -7.925781 3.234375 -7.84375 C 3.054688 -7.757812 2.921875 -7.644531 2.828125 -7.5 C 2.734375 -7.351562 2.6875 -7.1875 2.6875 -7 C 2.6875 -6.769531 2.753906 -6.578125 2.890625 -6.421875 C 3.023438 -6.273438 3.222656 -6.128906 3.484375 -5.984375 C 3.753906 -5.835938 4.085938 -5.671875 4.484375 -5.484375 C 4.972656 -5.253906 5.390625 -5.015625 5.734375 -4.765625 C 6.078125 -4.515625 6.34375 -4.222656 6.53125 -3.890625 C 6.71875 -3.554688 6.8125 -3.140625 6.8125 -2.640625 Z M 6.8125 -2.640625 "/></g></g></g><g fill="#556b2f" fill-opacity="1"><g transform="translate(219.886698, 237.251)"><g><path d="M 1.203125 0 L 1.203125 -9.5 L 3.21875 -9.5 L 3.21875 0 Z M 1.203125 0 "/></g></g></g><g fill="#556b2f" fill-opacity="1"><g transform="translate(226.379892, 237.251)"><g><path d="M 6.8125 -2.640625 C 6.8125 -2.078125 6.671875 -1.585938 6.390625 -1.171875 C 6.117188 -0.753906 5.722656 -0.429688 5.203125 -0.203125 C 4.679688 0.015625 4.046875 0.125 3.296875 0.125 C 2.972656 0.125 2.648438 0.101562 2.328125 0.0625 C 2.015625 0.0195312 1.710938 -0.0390625 1.421875 -0.125 C 1.140625 -0.207031 0.867188 -0.3125 0.609375 -0.4375 L 0.609375 -2.3125 C 1.054688 -2.113281 1.523438 -1.929688 2.015625 -1.765625 C 2.503906 -1.609375 2.984375 -1.53125 3.453125 -1.53125 C 3.785156 -1.53125 4.050781 -1.570312 4.25 -1.65625 C 4.457031 -1.75 4.601562 -1.867188 4.6875 -2.015625 C 4.78125 -2.171875 4.828125 -2.347656 4.828125 -2.546875 C 4.828125 -2.785156 4.742188 -2.988281 4.578125 -3.15625 C 4.421875 -3.320312 4.203125 -3.476562 3.921875 -3.625 C 3.648438 -3.769531 3.335938 -3.929688 2.984375 -4.109375 C 2.765625 -4.203125 2.523438 -4.320312 2.265625 -4.46875 C 2.003906 -4.625 1.753906 -4.8125 1.515625 -5.03125 C 1.285156 -5.25 1.09375 -5.507812 0.9375 -5.8125 C 0.789062 -6.125 0.71875 -6.5 0.71875 -6.9375 C 0.71875 -7.5 0.847656 -7.984375 1.109375 -8.390625 C 1.367188 -8.796875 1.738281 -9.101562 2.21875 -9.3125 C 2.707031 -9.53125 3.28125 -9.640625 3.9375 -9.640625 C 4.4375 -9.640625 4.910156 -9.582031 5.359375 -9.46875 C 5.804688 -9.351562 6.273438 -9.1875 6.765625 -8.96875 L 6.109375 -7.40625 C 5.671875 -7.582031 5.273438 -7.71875 4.921875 -7.8125 C 4.578125 -7.914062 4.226562 -7.96875 3.875 -7.96875 C 3.625 -7.96875 3.410156 -7.925781 3.234375 -7.84375 C 3.054688 -7.757812 2.921875 -7.644531 2.828125 -7.5 C 2.734375 -7.351562 2.6875 -7.1875 2.6875 -7 C 2.6875 -6.769531 2.753906 -6.578125 2.890625 -6.421875 C 3.023438 -6.273438 3.222656 -6.128906 3.484375 -5.984375 C 3.753906 -5.835938 4.085938 -5.671875 4.484375 -5.484375 C 4.972656 -5.253906 5.390625 -5.015625 5.734375 -4.765625 C 6.078125 -4.515625 6.34375 -4.222656 6.53125 -3.890625 C 6.71875 -3.554688 6.8125 -3.140625 6.8125 -2.640625 Z M 6.8125 -2.640625 "/></g></g></g><g fill="#556b2f" fill-opacity="1"><g transform="translate(235.795621, 237.251)"><g><path d="M 4.859375 0 L 2.84375 0 L 2.84375 -7.828125 L 0.265625 -7.828125 L 0.265625 -9.5 L 7.4375 -9.5 L 7.4375 -7.828125 L 4.859375 -7.828125 Z M 4.859375 0 "/></g></g></g><g fill="#556b2f" fill-opacity="1"><g transform="translate(245.588032, 237.251)"><g><path d="M 7.015625 0 L 6.328125 -2.265625 L 2.859375 -2.265625 L 2.171875 0 L 0 0 L 3.359375 -9.546875 L 5.8125 -9.546875 L 9.1875 0 Z M 5.84375 -3.953125 L 5.15625 -6.15625 C 5.113281 -6.3125 5.054688 -6.503906 4.984375 -6.734375 C 4.910156 -6.960938 4.835938 -7.195312 4.765625 -7.4375 C 4.691406 -7.675781 4.632812 -7.882812 4.59375 -8.0625 C 4.550781 -7.882812 4.488281 -7.664062 4.40625 -7.40625 C 4.332031 -7.144531 4.257812 -6.894531 4.1875 -6.65625 C 4.125 -6.425781 4.078125 -6.257812 4.046875 -6.15625 L 3.359375 -3.953125 Z M 5.84375 -3.953125 "/></g></g></g><g fill="#556b2f" fill-opacity="1"><g transform="translate(256.854706, 237.251)"><g><path d="M 9.625 0 L 7.0625 0 L 2.9375 -7.1875 L 2.875 -7.1875 C 2.894531 -6.882812 2.910156 -6.582031 2.921875 -6.28125 C 2.929688 -5.976562 2.941406 -5.675781 2.953125 -5.375 C 2.972656 -5.070312 2.988281 -4.769531 3 -4.46875 L 3 0 L 1.203125 0 L 1.203125 -9.5 L 3.734375 -9.5 L 7.859375 -2.390625 L 7.90625 -2.390625 C 7.894531 -2.679688 7.882812 -2.972656 7.875 -3.265625 C 7.863281 -3.554688 7.851562 -3.84375 7.84375 -4.125 C 7.832031 -4.414062 7.820312 -4.707031 7.8125 -5 L 7.8125 -9.5 L 9.625 -9.5 Z M 9.625 0 "/></g></g></g><g fill="#556b2f" fill-opacity="1"><g transform="translate(269.757998, 237.251)"><g><path d="M 4.859375 0 L 2.84375 0 L 2.84375 -7.828125 L 0.265625 -7.828125 L 0.265625 -9.5 L 7.4375 -9.5 L 7.4375 -7.828125 L 4.859375 -7.828125 Z M 4.859375 0 "/></g></g></g><g clip-path="url(#dbf2b63daf)"><path fill="#d9d9d9" d="M 33.183594 187.136719 C 33.183594 187.136719 64.347656 168.492188 76.828125 160.796875 C 89.347656 153.101562 90.878906 151.683594 92.410156 154.554688 C 93.941406 157.390625 94.824219 158.730469 94.824219 158.730469 C 94.824219 158.730469 117.757812 141.386719 123.15625 133.382812 C 128.515625 125.34375 132.035156 125.460938 138.046875 130.859375 C 144.097656 136.21875 157.265625 144.449219 159.566406 144.984375 C 161.863281 145.558594 193.257812 117.457031 196.433594 114.050781 C 199.613281 110.640625 202.789062 105.28125 210.675781 116.347656 C 218.601562 127.449219 247.660156 159.496094 247.660156 159.496094 C 247.660156 159.496094 258.304688 146.859375 260.371094 143.914062 C 262.476562 140.925781 262.59375 142.6875 265.308594 147.742188 C 268.066406 152.796875 277.945312 166.5 277.945312 166.5 C 277.945312 166.5 297.777344 150.039062 300.417969 150.917969 C 303.058594 151.800781 341.804688 183.078125 341.804688 183.078125 C 341.804688 183.078125 304.820312 159.6875 304.171875 161.027344 C 303.480469 162.328125 304.363281 171.441406 302.714844 171.554688 C 301.070312 171.671875 289.125 171.785156 289.125 171.785156 L 289.125 185.796875 L 273.007812 185.796875 C 273.007812 185.796875 249.308594 172.972656 236.789062 162.671875 C 224.304688 152.335938 203.441406 117.6875 203.441406 117.6875 L 206.082031 169.027344 L 175.566406 151.265625 L 184.144531 174.734375 C 184.144531 174.734375 159.027344 155.511719 149.035156 147.398438 C 139.042969 139.28125 131.808594 134.457031 130.503906 135.988281 C 129.164062 137.558594 121.507812 146.210938 117.449219 149.15625 C 113.390625 152.144531 87.816406 171.554688 87.816406 171.554688 L 89.003906 158.921875 C 89.003906 158.921875 72.003906 170.0625 63.503906 173.203125 C 55.003906 176.304688 33.183594 187.136719 33.183594 187.136719 Z M 33.183594 187.136719 " fill-opacity="1" fill-rule="evenodd"/></g></svg>