<svg xmlns="http://www.w3.org/2000/svg" xmlns:xlink="http://www.w3.org/1999/xlink" width="150" zoomAndPan="magnify" viewBox="0 0 1440 809.999993" height="150" preserveAspectRatio="xMidYMid meet" version="1.0"><path fill="#ffffff" d="M 720 243 C 630.515625 243 558 315.515625 558 405 C 558 494.484375 630.515625 567 720 567 C 809.484375 567 882 494.484375 882 405 C 881.859375 315.515625 809.34375 243 720 243 Z M 814.535156 368.53125 C 814.535156 368.53125 817.339844 430.527344 770.214844 468.957031 C 699.664062 526.324219 623.5 479.757812 623.5 479.757812 C 623.5 479.757812 642.015625 480.039062 658.425781 475.691406 C 674.695312 471.34375 686.476562 460.683594 686.476562 460.683594 C 686.476562 460.683594 668.664062 457.035156 659.40625 450.304688 C 650.152344 443.570312 646.503906 430.667969 646.503906 430.667969 C 646.503906 430.667969 652.675781 431.230469 656.460938 431.089844 C 660.390625 430.949219 665.019531 429.125 665.019531 429.125 C 665.019531 429.125 652.253906 427.582031 640.332031 414.257812 C 630.933594 403.738281 631.636719 386.207031 631.636719 386.207031 C 631.636719 386.207031 637.246094 389.570312 640.191406 390.273438 C 643.136719 391.113281 648.886719 391.113281 648.886719 391.113281 C 648.886719 391.113281 637.667969 384.523438 632.757812 367.269531 C 627.847656 350.160156 637.246094 332.765625 637.246094 332.765625 C 637.246094 332.765625 653.9375 352.964844 678.625 365.867188 C 703.308594 378.769531 726.59375 378.351562 726.59375 378.351562 C 726.59375 378.351562 723.226562 368.113281 729.117188 352.964844 C 735.007812 337.816406 748.332031 326.875 768.671875 325.332031 C 789.007812 323.648438 802.050781 339.078125 802.050781 339.078125 C 802.050781 339.078125 808.363281 337.957031 815.515625 335.289062 C 822.671875 332.765625 829.824219 329.398438 829.824219 329.398438 C 829.824219 329.398438 827.296875 337.113281 822.390625 343.144531 C 817.480469 349.175781 812.011719 352.824219 812.011719 352.824219 C 812.011719 352.824219 818.460938 352.402344 824.914062 350.578125 C 831.367188 348.753906 834.871094 346.933594 834.871094 346.933594 C 827.4375 359.273438 814.535156 368.53125 814.535156 368.53125 Z M 814.535156 368.53125 " fill-opacity="1" fill-rule="nonzero"/></svg>